<svg xmlns="http://www.w3.org/2000/svg" width="64" height="64" shape-rendering="geometricPrecision" text-rendering="geometricPrecision" image-rendering="optimizeQuality" fill-rule="evenodd" clip-rule="evenodd" viewBox="0 0 640 640"><path d="M161.423 279.11L69.816 120.474C128.458 47.068 218.708-.012 319.976-.012c117.168 0 219.57 62.965 275.33 156.888H334.175c-4.69-.39-9.438-.638-14.245-.638-76.158 0-140.352 52.288-158.553 122.848l.048.024zm273.121-75.958H617.96c14.197 36.202 22.04 75.64 22.04 116.872C640 495.55 498.668 638.04 323.626 640l130.88-226.692c18.449-26.492 29.244-58.642 29.244-93.284 0-45.71-18.839-87.12-49.205-116.872zM203.742 320.024c0-64.099 52.158-116.234 116.234-116.234 64.087 0 116.246 52.159 116.246 116.234 0 64.088-52.158 116.246-116.246 116.246-64.076 0-116.234-52.158-116.234-116.246zm160.112 157.762l-91.596 158.695C118.17 613.438 0 480.515 0 320.024c0-56.988 14.918-110.505 41.044-156.876l130.643 226.278c26.162 55.678 82.808 94.372 148.277 94.372 15.19 0 29.87-2.091 43.879-5.965l.012-.047z"/></svg>